<?xml version="1.0" encoding="utf-8"?>
<!-- Generator: Adobe Illustrator 16.0.0, SVG Export Plug-In . SVG Version: 6.00 Build 0)  -->
<!DOCTYPE svg PUBLIC "-//W3C//DTD SVG 1.1//EN" "http://www.w3.org/Graphics/SVG/1.1/DTD/svg11.dtd">
<svg version="1.1" id="Layer_1" xmlns="http://www.w3.org/2000/svg" xmlns:xlink="http://www.w3.org/1999/xlink" x="0px" y="0px"
	 width="69.84px" height="70px" viewBox="0 0 69.84 70" enable-background="new 0 0 69.84 70" xml:space="preserve">
<g opacity="0.8">
	<g>
		<path fill="#00A79D" d="M14.924,21.731c-5.847,1.197-8.255-2.786-8.927-7.913c-0.805-6.145,5.584-6.614,9.947-7.736
			c4.757-1.223,10.57-2.24,11.134,4.171c0.361,4.109,0.347,8.253,0.736,12.375c0.378,4.002-0.354,11.591,4.183,13.773
			c4.848,2.331,11.193,1.046,16.439,1.288c4.659,0.215,8.037-0.399,9.469-5.132c1.547-5.115-0.354-10.262-2.979-14.594
			c-1.343-2.216-2.939-3.726-5.205-4.947c-1.755-0.946-5.266-2.388-0.517-2.584c2.939-0.121,5.51,2.227,7.322,4.182
			c3.487,3.76,3.971,8.726,4.216,13.597c0.172,3.41,0.837,6.746,0.748,10.14c-0.018,0.685,0.816,0.767,1.165,0.315
			c0.047-0.062,0.094-0.122,0.141-0.183c0.492-0.639-0.595-1.26-1.08-0.631c-0.047,0.061-0.094,0.121-0.141,0.183
			c0.389,0.104,0.777,0.21,1.165,0.315c0.089-3.416-0.576-6.707-0.748-10.14c-0.195-3.891-0.521-7.466-2.221-11.006
			c-2.691-5.607-8.585-9.541-14.682-7.139c-0.448,0.176-0.604,0.667-0.276,1.044c1.505,1.728,3.474,2.553,5.467,3.628
			c3.745,2.019,6.241,7.933,6.757,11.947c0.586,4.57-0.559,9.251-5.855,9.747c-2.977,0.279-6.009-0.267-8.995-0.196
			c-3.465,0.082-7.339,0.82-10.322-1.509c-3.177-2.482-2.485-8.529-2.801-12.097c-0.334-3.769-0.657-7.5-0.693-11.287
			c-0.015-1.52-0.059-3.612-0.901-4.942c-1.822-2.876-5.218-2.857-8.307-2.271C15.294,4.863,7.529,5.254,5.152,9.026
			c-1.697,2.694-0.071,7.808,1.142,10.403c1.697,3.63,5.428,4.23,8.962,3.507C16.046,22.774,15.711,21.57,14.924,21.731
			L14.924,21.731z"/>
	</g>
</g>
<g opacity="0.8">
	<g>
		<path fill="#00A79D" d="M15.09,22.77c1.791-0.262,3.346-1.427,4.609-2.661c0.578-0.564-0.307-1.447-0.884-0.884
			c-1.125,1.098-2.464,2.106-4.058,2.339C13.962,21.681,14.302,22.885,15.09,22.77L15.09,22.77z"/>
	</g>
</g>
<g opacity="0.8">
	<g>
		<path fill="#00A79D" d="M19.551,20.816c1.632,3.732,1.996,8.074,2.999,12.012c1.287,5.046,1.531,9.585,0.66,14.708
			C22.247,53.191,19.513,59.211,20.655,65c0.156,0.791,1.36,0.455,1.205-0.332c-1.475-7.476,3.054-15.973,3.254-23.606
			c0.091-3.456-0.942-6.932-1.786-10.242c-0.907-3.558-1.219-7.251-2.698-10.635C20.308,19.448,19.231,20.085,19.551,20.816
			L19.551,20.816z"/>
	</g>
</g>
<g opacity="0.8">
	<g>
		<path fill="#00A79D" d="M30.132,49.5c-0.485,3.835,0.098,7.714-0.57,11.536c-0.323,1.846-1.063,3.267-2.722,4.175
			c-1.767,0.968-4.563,1.12-4.981-1.377c-0.133-0.794-1.337-0.456-1.205,0.332c0.641,3.826,5.44,3.438,7.871,1.468
			c4.271-3.465,2.259-11.405,2.857-16.134C31.483,48.702,30.232,48.712,30.132,49.5L30.132,49.5z"/>
	</g>
</g>
<g opacity="0.8">
	<g>
		<path fill="#00A79D" d="M30.321,54c0.66,2.45,6.014,1.846,7.743,1.817c4.389-0.073,9.496-0.264,13.692-1.715
			c0.757-0.262,0.432-1.47-0.332-1.205c-3.123,1.079-6.657,1.24-9.923,1.497c-1.348,0.105-9.489,1.078-9.976-0.727
			C31.317,52.891,30.111,53.221,30.321,54L30.321,54z"/>
	</g>
</g>
<g opacity="0.8">
	<g>
		<path fill="#00A79D" d="M50.551,46.982c2.752,5.099-0.018,20.362,10.355,15.892c0.738-0.318,0.102-1.396-0.631-1.08
			c-8.559,3.689-6.284-11.069-8.645-15.442C51.248,45.642,50.168,46.273,50.551,46.982L50.551,46.982z"/>
	</g>
</g>
<g opacity="0.8">
	<g>
		<path fill="#00A79D" d="M61.466,37.834c0.461,3.606-0.534,7.367-0.202,11.065c0.382,4.245,4.523,12.41-2.84,13.143
			c-0.794,0.079-0.802,1.33,0,1.25c2.541-0.253,6.319-2.429,5.976-5.497c-0.281-2.508-1.036-4.926-1.629-7.376
			c-1.031-4.268,0.483-8.373-0.055-12.585C62.615,37.046,61.364,37.036,61.466,37.834L61.466,37.834z"/>
	</g>
</g>
<g opacity="0.8">
	<g>
		<path fill="#00A79D" d="M48.132,54.5c0.172,2.516,0.005,5.427,1.276,7.698c1.441,2.575,4.545,1.327,6.498,0.176
			c0.693-0.409,0.065-1.49-0.631-1.08c-1.968,1.161-4.291,2.043-5.195-0.663c-0.647-1.937-0.561-4.116-0.698-6.131
			C49.327,53.7,48.077,53.695,48.132,54.5L48.132,54.5z"/>
	</g>
</g>
<g opacity="0.8">
	<g>
		<path fill="#00A79D" d="M32.321,56c0.55,1.917,1.618,3.639,2.194,5.551c0.921,3.056-2.657,3.516-4.759,2.681
			c-0.75-0.298-1.072,0.911-0.332,1.205c2.143,0.852,5.345,0.595,6.372-1.787c1.029-2.386-1.641-5.79-2.27-7.981
			C33.305,54.895,32.098,55.224,32.321,56L32.321,56z"/>
	</g>
</g>
<g opacity="0.8">
	<g>
		<path fill="#00A79D" d="M18.591,7.398c-2.569,1.077-2.953,3.561-0.901,5.44c2.073,1.899,5.082,1.728,6.747-0.547
			c3.167-4.326-7.006-8.703-7.638-3.124c-0.091,0.8,1.16,0.792,1.25,0c0.338-2.986,6.771-0.684,5.531,2.113
			c-0.853,1.923-3.061,1.952-4.617,0.97c-1.582-0.998-1.972-2.836-0.04-3.646C19.655,8.296,19.334,7.086,18.591,7.398L18.591,7.398z
			"/>
	</g>
</g>
<g opacity="0.8">
	<g>
		<path fill="#00A79D" d="M19.424,10.625c0.806,0,0.806-1.25,0-1.25S18.618,10.625,19.424,10.625L19.424,10.625z"/>
	</g>
</g>
<g opacity="0.8">
	<g>
		<path fill="#00A79D" d="M10.09,14.625c0.806,0,0.806-1.25,0-1.25S9.284,14.625,10.09,14.625L10.09,14.625z"/>
	</g>
</g>
<g opacity="0.8">
	<g>
		<path fill="#1C75BC" d="M39.884,37.185c-0.613,1.074-1.533,2.488-1.134,3.787c0.388,1.262,2.073,1.451,3.158,1.576
			c1.721,0.198,3.713,0.196,5.153-0.903c1.508-1.152,1.29-3.081,0.632-4.644c-0.308-0.731-1.518-0.41-1.205,0.332
			c0.474,1.126,0.875,2.52-0.262,3.388c-0.984,0.752-2.393,0.688-3.558,0.635c-0.665-0.03-2.496-0.007-2.759-0.862
			c-0.242-0.788,0.695-2.051,1.054-2.678C41.364,37.114,40.284,36.485,39.884,37.185L39.884,37.185z"/>
	</g>
</g>
<g opacity="0.8">
	<g>
		<path fill="#1C75BC" d="M34.649,38.725c-0.975,0.777-1.435,2.385-0.077,3.051c0.81,0.397,1.612,0.056,2.113-0.635
			c0.439-0.607,0.482-1.441,0.184-2.109c-0.418-0.932-1.594-0.975-2.445-0.8c-0.79,0.162-0.455,1.367,0.332,1.205
			c0.238-0.049,0.49-0.078,0.72-0.025c0.114,0.025,0.11,0.035,0.174,0.071c0.022,0.013,0.109,0.116,0.082,0.076
			c0.125,0.183,0.109,0.5,0,0.734c-0.093,0.201-0.108,0.216-0.271,0.359c0.11-0.097-0.169,0.077-0.022,0.016
			c-0.036,0.014-0.072,0.025-0.11,0.034c-0.166,0.045,0.11,0.001-0.066,0.001c0.108,0-0.105-0.029-0.145-0.043
			c0.018,0.006-0.163-0.097-0.171-0.159c-0.045-0.361,0.337-0.693,0.585-0.892C36.163,39.106,35.272,38.229,34.649,38.725
			L34.649,38.725z"/>
	</g>
</g>
<g opacity="0.8">
	<g>
		<path fill="#1C75BC" d="M36.799,44.334c0.011,1.023,0.37,2.146,1.533,2.275c0.796,0.088,1.608-0.427,2.135-0.978
			c0.549-0.575,0.967-1.495,0.37-2.188c-0.769-0.893-2.47-0.443-3.412-0.213c-0.783,0.191-0.451,1.396,0.332,1.205
			c0.519-0.127,1.039-0.235,1.575-0.246c0.211-0.004,0.323,0.012,0.441,0.039c0.037,0.01,0.235,0.096,0.086,0.024
			c0.154,0.073-0.021-0.039,0.043,0.02c0.079,0.07-0.068-0.126,0.011,0.018c-0.101-0.182-0.005,0.099-0.029-0.115
			c0.005,0.049-0.017,0.214,0.013,0.018c-0.008,0.053-0.023,0.104-0.04,0.155c-0.03,0.096,0.058-0.109-0.023,0.05
			c-0.028,0.056-0.062,0.108-0.097,0.161c-0.092,0.142,0.015-0.009-0.051,0.072c-0.044,0.054-0.091,0.104-0.139,0.153
			c-0.229,0.24-0.264,0.26-0.552,0.422c-0.201,0.113-0.371,0.159-0.529,0.161c-0.182,0.003,0.05,0.019-0.054-0.002
			c-0.044-0.009-0.209-0.086-0.055-0.011c-0.075-0.037-0.086-0.048-0.117-0.093c-0.1-0.146-0.086-0.141-0.14-0.354
			c-0.045-0.179-0.05-0.366-0.052-0.574C38.041,43.528,36.791,43.527,36.799,44.334L36.799,44.334z"/>
	</g>
</g>
<g opacity="0.8">
	<g>
		<path fill="#1C75BC" d="M50.049,41.334c-0.014,0.204,0.014-0.008,0.034-0.064c-0.016,0.043,0.081-0.155,0.101-0.188
			c0.119-0.209,0.278-0.39,0.482-0.519c0.248-0.157,0.487-0.074,0.737,0.031c0.145,0.061,0.278,0.141,0.408,0.228
			c0.072,0.049,0.073,0.134,0.058,0.01c0.016,0.124,0.053-0.072-0.015,0.051c-0.036,0.065-0.081,0.099-0.148,0.162
			c-0.166,0.156-0.402,0.271-0.611,0.356c-0.46,0.186-1.02,0.327-1.505,0.164c-0.766-0.259-1.092,0.949-0.332,1.205
			c0.873,0.295,1.89,0.007,2.682-0.391c0.732-0.368,1.49-1.184,1.049-2.05c-0.465-0.909-1.876-1.345-2.778-0.934
			c-0.705,0.321-1.357,1.146-1.411,1.938C48.744,42.139,49.995,42.134,50.049,41.334L50.049,41.334z"/>
	</g>
</g>
<g opacity="0.8">
	<g>
		<path fill="#1C75BC" d="M43.314,43.892c-0.428,0.478-0.882,1.061-0.847,1.74c0.032,0.612,0.489,1.001,1.033,1.19
			c1.218,0.424,2.814-0.203,3.698-1.046c0.261-0.25,0.216-0.63,0-0.885c-0.857-1.007-2.142-1.485-3.442-1.517
			c-0.807-0.02-0.805,1.23,0,1.25c0.994,0.023,1.907,0.386,2.558,1.151c0-0.295,0-0.59,0-0.885
			c-0.553,0.529-1.335,0.794-2.094,0.787c-0.138-0.001-0.257-0.024-0.388-0.062c-0.071-0.021-0.155-0.129-0.106-0.014
			c-0.086-0.204,0.302-0.638,0.473-0.827C44.735,44.178,43.854,43.291,43.314,43.892L43.314,43.892z"/>
	</g>
</g>
</svg>
