<?xml version="1.0" encoding="utf-8"?>
<!-- Generator: Adobe Illustrator 16.0.0, SVG Export Plug-In . SVG Version: 6.00 Build 0)  -->
<!DOCTYPE svg PUBLIC "-//W3C//DTD SVG 1.1//EN" "http://www.w3.org/Graphics/SVG/1.1/DTD/svg11.dtd">
<svg version="1.1" id="Layer_1" xmlns="http://www.w3.org/2000/svg" xmlns:xlink="http://www.w3.org/1999/xlink" x="0px" y="0px"
	 width="50px" height="70px" viewBox="0 0 50 70" enable-background="new 0 0 50 70" xml:space="preserve">
<g opacity="0.8">
	<g>
		<path fill="#1B75BB" d="M15.126,27.333c-0.438-6.723-1.84-13.972,5.928-17.007c4.249-1.66,12.025-2.121,16.282-0.295
			c5.062,2.17,5.902,13.319,6.207,17.802c0.482,7.135-12.197,7.058-16.875,7.208c-0.805,0.025-0.807,1.275,0,1.25
			c4.141-0.133,8.254-0.836,12.324-1.58c1.938-0.354,4.416-1.265,5.181-3.295c1.411-3.744,0.208-8.212-0.657-11.964
			c-0.759-3.28-1.664-6.816-3.971-9.369C35.684,5.808,25.438,7.71,20.721,9.121c-8.591,2.57-7.307,11.135-6.845,18.212
			C13.928,28.133,15.179,28.138,15.126,27.333L15.126,27.333z"/>
	</g>
</g>
<g opacity="0.8">
	<g>
		<path fill="#1B75BB" d="M13.961,27.648c2.774,6.459,3.142,33.479-8.128,31.915c-0.478-0.065-1.059,0.41-0.706,0.918
			c2.926,4.213,8.291,4.211,12.961,4.106c5.082-0.112,11.678,1.248,16.395-0.882c0.732-0.332,0.098-1.409-0.631-1.08
			c-3.662,1.652-8.559,0.539-12.472,0.596c-4.919,0.071-11.908,1.33-15.174-3.371c-0.235,0.307-0.47,0.612-0.706,0.918
			c13.106,1.819,12.717-26.353,9.539-33.75C14.723,26.279,13.647,26.916,13.961,27.648L13.961,27.648z"/>
	</g>
</g>
<g opacity="0.8">
	<g>
		<path fill="#1B75BB" d="M29.334,57.958c2.1-0.051,6.262,2.562,4.225,4.933c-0.521,0.608,0.358,1.498,0.885,0.885
			c2.812-3.276-1.799-7.147-5.108-7.066C28.529,56.729,28.527,57.979,29.334,57.958L29.334,57.958z"/>
	</g>
</g>
<g opacity="0.8">
	<g>
		<path fill="#1B75BB" d="M27.898,36.999c2.197,6.603,4.416,13.33,2.832,20.335c-0.178,0.785,1.027,1.118,1.205,0.332
			c1.638-7.239-0.551-14.146-2.832-20.999C28.852,35.906,27.643,36.232,27.898,36.999L27.898,36.999z"/>
	</g>
</g>
<g opacity="0.8">
	<g>
		<path fill="#1B75BB" d="M32.167,56.27c2.211-0.344,6.002,3.729,3.001,4.961c-0.734,0.303-0.414,1.513,0.332,1.205
			c1.965-0.807,2.367-2.582,1.51-4.428c-0.895-1.923-3.062-3.271-5.175-2.943C31.04,55.188,31.379,56.391,32.167,56.27L32.167,56.27
			z"/>
	</g>
</g>
<g opacity="0.8">
	<g>
		<path fill="#1B75BB" d="M27.668,45.604c1.312,0.238,1.148,2.932,1.041,3.896c0.208-0.208,0.417-0.417,0.625-0.625
			c-0.882-0.061-1.41-0.811-1.793-1.523c-0.381-0.711-1.46-0.08-1.08,0.631c0.614,1.146,1.525,2.051,2.873,2.144
			c0.367,0.024,0.59-0.306,0.625-0.625c0.176-1.585,0.088-4.729-1.959-5.103C27.212,44.254,26.876,45.458,27.668,45.604
			L27.668,45.604z"/>
	</g>
</g>
<g opacity="0.8">
	<g>
		<path fill="#1B75BB" d="M30.835,44.604c1.308,0.416,2.528,1.386,3.254,2.551c0.12,0.195,0.209,0.392,0.265,0.613
			c0.047,0.186,0.037,0.084-0.018,0.113c-0.505,0.283-1.713-0.309-2.169-0.482c-0.754-0.289-1.077,0.92-0.332,1.205
			c0.911,0.35,2.095,0.804,3.06,0.39c0.697-0.3,0.815-1.077,0.615-1.735c-0.557-1.818-2.613-3.311-4.343-3.859
			C30.396,43.152,30.068,44.359,30.835,44.604L30.835,44.604z"/>
	</g>
</g>
<g opacity="0.8">
	<g>
		<path fill="#1B75BB" d="M24.168,14.23c-7.034,2.718-0.094,13.88,5.941,8.711c6.07-5.199-4.708-13.781-7.815-6.924
			c-0.33,0.728,0.747,1.364,1.08,0.631c2.265-4.999,10.056,0.925,6.114,5.157c-4.307,4.625-10.281-4.325-4.988-6.37
			C25.244,15.148,24.921,13.939,24.168,14.23L24.168,14.23z"/>
	</g>
</g>
<g opacity="0.8">
	<g>
		<path fill="#1B75BB" d="M25.564,18.332c0.137,0.46,0.482,0.616,0.937,0.626c0.808,0.017,0.806-1.233,0-1.25
			c0.004,0.005,0.007,0.01,0.011,0.015c0.096,0.125,0.191,0.249,0.287,0.374c-0.009-0.033-0.02-0.065-0.027-0.097
			C26.543,17.229,25.336,17.557,25.564,18.332L25.564,18.332z"/>
	</g>
</g>
<g opacity="0.8">
	<g>
		<path fill="#1B75BB" d="M29.771,7.5c-0.418-1.154-1.072-2.149-1.828-3.109c-0.267-0.339-0.776-0.171-0.981,0.126
			c-0.821,1.196-1.299,2.57-2,3.833c-0.391,0.706,0.688,1.336,1.08,0.631c0.7-1.263,1.179-2.637,2-3.833
			c-0.327,0.042-0.653,0.084-0.981,0.126c0.613,0.78,1.168,1.62,1.506,2.557C28.837,8.584,30.045,8.26,29.771,7.5L29.771,7.5z"/>
	</g>
</g>
<g opacity="0.8">
	<g>
		<path fill="#1B75BB" d="M25.271,8.167c-0.422-1.127-1.242-1.873-2.161-2.609c-0.305-0.244-0.768-0.255-0.981,0.126
			c-0.586,1.047-0.89,2.452-0.919,3.649c-0.02,0.807,1.23,0.805,1.25,0c0.024-0.975,0.271-2.165,0.748-3.018
			c-0.327,0.042-0.654,0.084-0.981,0.126c0.717,0.574,1.507,1.168,1.84,2.058C24.346,9.247,25.555,8.923,25.271,8.167L25.271,8.167z
			"/>
	</g>
</g>
<g opacity="0.8">
	<g>
		<path fill="#1B75BB" d="M21.833,8.73C20.573,8.362,19.327,7.911,18,7.874c-0.266-0.007-0.545,0.195-0.603,0.459
			c-0.182,0.836-0.182,1.662,0,2.499c0.171,0.788,1.376,0.454,1.205-0.332c-0.133-0.612-0.133-1.223,0-1.834
			c-0.201,0.153-0.402,0.306-0.603,0.459c1.206,0.033,2.354,0.477,3.5,0.811C22.277,10.162,22.606,8.956,21.833,8.73L21.833,8.73z"
			/>
	</g>
</g>
<g opacity="0.8">
	<g>
		<path fill="#1B75BB" d="M17.001,10.063c-1.139,0.381-2.394,0.786-3.36,1.519c-0.489,0.371-0.903,0.914-0.604,1.544
			c0.343,0.724,1.445,0.868,2.131,0.975c0.788,0.123,1.127-1.081,0.332-1.205c-0.38-0.06-0.755-0.13-1.122-0.25
			c-0.093-0.031-0.172-0.074-0.256-0.125c-0.014-0.009,0.007-0.036,0.044,0.08c0.068,0.216-0.099,0.261,0.12,0.057
			c0.126-0.118,0.317-0.226,0.485-0.323c0.8-0.462,1.689-0.775,2.562-1.067C18.094,11.015,17.768,9.807,17.001,10.063L17.001,10.063
			z"/>
	</g>
</g>
<g opacity="0.8">
	<g>
		<path fill="#1B75BB" d="M13.892,14.558c-0.648,0.637-1.36,1.197-2.224,1.506c-0.265,0.094-0.459,0.309-0.459,0.603
			c0,0.558,0.351,0.757,0.796,1.028c0.622,0.379,1.322,0.638,1.997,0.908c0.749,0.3,1.071-0.909,0.332-1.205
			c-0.763-0.306-1.513-0.622-2.184-1.104c0.103,0.18,0.207,0.36,0.31,0.54c0-0.056,0-0.111,0-0.167
			c-0.153,0.201-0.306,0.402-0.459,0.603c1.073-0.383,1.968-1.032,2.776-1.827C15.351,14.875,14.467,13.992,13.892,14.558
			L13.892,14.558z"/>
	</g>
</g>
<g opacity="0.8">
	<g>
		<path fill="#1B75BB" d="M12.794,19.684c-0.496,0.982-1.034,1.94-1.396,2.983c-0.137,0.394,0.218,0.784,0.603,0.791
			c0.788,0.015,1.551,0.139,2.333-0.022c0.79-0.162,0.455-1.367-0.332-1.205c-0.654,0.134-1.34-0.01-2-0.022
			c0.201,0.264,0.402,0.527,0.603,0.791c0.327-0.939,0.823-1.799,1.27-2.684C14.236,19.597,13.158,18.964,12.794,19.684
			L12.794,19.684z"/>
	</g>
</g>
<g opacity="0.8">
	<g>
		<path fill="#1B75BB" d="M13.209,25.5c0.106,1.328-0.96,2.585-1.311,3.834c-0.138,0.488,0.314,0.854,0.769,0.768
			c0.766-0.143,1.559-0.047,2.333-0.166c0.795-0.123,0.456-1.327-0.332-1.205c-0.776,0.12-1.558,0.021-2.333,0.167
			c0.256,0.256,0.512,0.512,0.769,0.769c0.389-1.383,1.476-2.67,1.355-4.167C14.395,24.702,13.145,24.695,13.209,25.5L13.209,25.5z"
			/>
	</g>
</g>
<g opacity="0.8">
	<g>
		<path fill="#1B75BB" d="M14.065,31.5c-0.34,0.818-0.824,1.804-0.536,2.707c0.325,1.02,1.554,1.271,2.473,1.395
			c0.788,0.107,1.128-1.097,0.332-1.205c-0.468-0.062-1.514-0.103-1.646-0.692c-0.121-0.542,0.384-1.396,0.582-1.872
			C15.579,31.088,14.369,30.767,14.065,31.5L14.065,31.5z"/>
	</g>
</g>
<g opacity="0.8">
	<g>
		<path fill="#1B75BB" d="M15.835,37.562c-0.855,0.232-1.596,0.666-2.041,1.455c-0.1,0.178-0.132,0.457,0,0.631
			c0.533,0.703,1.114,1.599,1.891,2.058c0.696,0.41,1.324-0.67,0.631-1.08c-0.576-0.34-1.047-1.085-1.443-1.608
			c0,0.211,0,0.42,0,0.631c0.288-0.51,0.746-0.729,1.293-0.879C16.944,38.557,16.614,37.352,15.835,37.562L15.835,37.562z"/>
	</g>
</g>
<g opacity="0.8">
	<g>
		<path fill="#1B75BB" d="M14.726,42.559c-0.517,0.649-1.14,1.178-1.874,1.567c-0.433,0.229-0.377,0.836,0,1.08
			c0.511,0.329,0.929,0.791,1.357,1.219c0.305,0.304,0.679,0.757,1.126,0.845c0.787,0.152,1.123-1.052,0.332-1.205
			c-0.179-0.035-0.636-0.586-0.836-0.785c-0.418-0.418-0.849-0.83-1.348-1.152c0,0.359,0,0.721,0,1.08
			c0.817-0.436,1.55-1.04,2.126-1.764C16.105,42.818,15.227,41.927,14.726,42.559L14.726,42.559z"/>
	</g>
</g>
<g opacity="0.8">
	<g>
		<path fill="#1B75BB" d="M15.041,48.814c0.003-0.004,0.005-0.01,0.008-0.015c0.135-0.256,0.101-0.546-0.098-0.758
			c-0.414-0.44-1.412-0.097-1.908-0.009c-0.581,0.102-1.372,0.093-1.562,0.783c-0.354,1.283,1.066,2.666,1.912,3.457
			c0.588,0.55,1.474-0.332,0.884-0.885c-0.293-0.273-0.567-0.57-0.829-0.875c-0.228-0.265-0.429-0.548-0.604-0.85
			c-0.072-0.126-0.121-0.249-0.16-0.389c-0.048-0.166-0.042-0.03,0.024-0.129c-0.125,0.096-0.249,0.19-0.374,0.287
			c0.306-0.062,0.612-0.119,0.918-0.175c0.245-0.045,0.49-0.086,0.736-0.125c0.081-0.013,0.16-0.022,0.24-0.032
			c0.353-0.041,0.101,0.103-0.161-0.178c-0.033-0.252-0.065-0.505-0.098-0.757c-0.002,0.005-0.005,0.01-0.008,0.015
			C13.584,48.896,14.663,49.527,15.041,48.814L15.041,48.814z"/>
	</g>
</g>
<g opacity="0.8">
	<g>
		<path fill="#1B75BB" d="M13.168,52.896c-0.93,0.289-1.869,0.311-2.834,0.312c-0.418,0-0.695,0.397-0.603,0.791
			c0.224,0.957,0.792,1.771,1.167,2.667c0.257,0.614,1.228,0.593,1.228-0.166c0-0.167,0-0.333,0-0.5c0-0.807-1.25-0.807-1.25,0
			c0,0.167,0,0.333,0,0.5c0.409-0.057,0.818-0.109,1.228-0.166c-0.373-0.891-0.946-1.723-1.167-2.667
			c-0.201,0.265-0.402,0.526-0.603,0.791c1.072-0.001,2.134-0.036,3.166-0.354C14.268,53.865,13.94,52.658,13.168,52.896
			L13.168,52.896z"/>
	</g>
</g>
<g opacity="0.8">
	<g>
		<path fill="#1B75BB" d="M10.649,57.46c-0.892-0.401-1.852-0.418-2.815-0.419c-0.438,0-0.667,0.396-0.603,0.791
			c0.082,0.495,0.054,1.434-0.27,1.854c-0.492,0.639,0.595,1.26,1.079,0.631c0.53-0.688,0.528-2.014,0.396-2.815
			c-0.201,0.265-0.402,0.526-0.603,0.791c0.711,0,1.52-0.051,2.185,0.249C10.747,58.868,11.383,57.791,10.649,57.46L10.649,57.46z"
			/>
	</g>
</g>
<g opacity="0.8">
	<g>
		<path fill="#00A69C" d="M17.276,38.941c0.102-0.125,1.473-1.812,1.676-1.547c0.265,0.347,0.327,0.905,0.418,1.318
			c0.258,1.159,0.452,2.298,0.975,3.375c0.256,0.527,0.578,1.004,0.759,1.566c0.356,1.103-1.728,1.562-2.385,1.586
			c-1.09,0.04-2.033-0.176-2.758,0.775c-0.488,0.643,0.598,1.265,1.079,0.631c0.368-0.482,2.438-0.184,3.081-0.36
			c0.797-0.22,1.521-0.795,2.009-1.443c0.945-1.257-0.657-3.042-1.027-4.177c-0.377-1.159-0.287-3.312-1.283-4.175
			c-1.299-1.125-2.667,0.636-3.429,1.565C15.886,38.676,16.765,39.564,17.276,38.941L17.276,38.941z"/>
	</g>
</g>
<g opacity="0.8">
	<g>
		<path fill="#00A69C" d="M19.104,33c-0.118-0.582-0.15-1.146,0.417-1.465c0.47-0.265,1.127-0.24,1.647-0.244
			c-0.201-0.152-0.402-0.306-0.603-0.459c0.374,0.992,0.609,2.02,1.063,2.982c0.075-0.285,0.149-0.569,0.224-0.854
			c-0.531,0.351-1.123,0.517-1.753,0.575c-0.34,0.031-1.033,0.099-1.323-0.145c-0.613-0.514-1.502,0.366-0.884,0.885
			c1.184,0.991,3.416,0.539,4.591-0.236c0.303-0.2,0.376-0.533,0.224-0.855c-0.407-0.862-0.602-1.795-0.937-2.684
			c-0.099-0.262-0.305-0.461-0.603-0.459c-0.896,0.007-1.921,0.064-2.645,0.661c-0.805,0.663-0.817,1.683-0.625,2.63
			C18.059,34.121,19.264,33.787,19.104,33L19.104,33z"/>
	</g>
</g>
<g opacity="0.8">
	<g>
		<path fill="#00A69C" d="M18.276,49.441c0.37-0.367,0.739-0.73,1.186-1.004c0.595-0.363,0.996,0.047,1.333,0.543
			c0.075-0.285,0.149-0.569,0.224-0.854c-1.017,0.677-1.511,1.776-1.954,2.874c0.306-0.125,0.612-0.249,0.918-0.374
			C19.23,50.3,18.72,49.773,18.437,49c-0.274-0.751-1.483-0.427-1.205,0.332c0.389,1.062,1.066,1.916,2.121,2.374
			c0.399,0.173,0.755,0.03,0.918-0.374c0.309-0.766,0.667-1.652,1.379-2.126c0.269-0.179,0.424-0.562,0.224-0.854
			c-0.503-0.74-1.177-1.414-2.144-1.303c-0.949,0.11-1.694,0.87-2.338,1.51C16.819,49.127,17.704,50.01,18.276,49.441L18.276,49.441
			z"/>
	</g>
</g>
<g opacity="0.8">
	<g>
		<path fill="#00A69C" d="M21.876,37.666c-0.045,0.843-0.102,2.261,0.802,2.727c0.735,0.379,1.433-0.166,1.848-0.744
			c0.424-0.59,0.602-1.422,0.291-2.098c-0.434-0.941-1.612-0.945-2.482-0.82c-0.338,0.05-0.518,0.474-0.437,0.77
			c0.099,0.359,0.432,0.484,0.769,0.438c0.303-0.043,0.583-0.043,0.832,0.026c-0.004-0.002,0.187,0.103,0.115,0.044
			c0.038,0.03,0.069,0.067,0.102,0.104c-0.128-0.146,0.051,0.154-0.023-0.033c0.073,0.186,0.045,0.252,0.015,0.385
			c-0.058,0.256-0.065,0.258-0.231,0.514c-0.084,0.129,0.014,0.004-0.12,0.146c-0.032,0.035-0.066,0.066-0.102,0.098
			c-0.114,0.103,0.108-0.074-0.015,0.008c-0.034,0.023-0.07,0.043-0.107,0.062c0.149-0.074,0.053-0.022,0.006-0.011
			c0.036-0.01,0.073-0.016,0.14,0.021c-0.009-0.005,0.02,0.021-0.007-0.021c-0.009-0.014-0.073-0.168-0.03-0.055
			c-0.032-0.086-0.053-0.177-0.073-0.265c-0.095-0.416-0.063-0.869-0.041-1.291C23.17,36.859,21.919,36.864,21.876,37.666
			L21.876,37.666z"/>
	</g>
</g>
<g opacity="0.8">
	<g>
		<path fill="#00A69C" d="M23.937,45.666c0.092-0.254,0.224-0.493,0.404-0.695c0.065-0.072,0.136-0.137,0.228-0.164
			c-0.165,0.051-0.088-0.012-0.003,0.192c0.159,0.382,0.244,0.681,0.043,0.886c-0.139,0.143-0.372,0.164-0.592,0.098
			c-0.054-0.016-0.176-0.101-0.246-0.207c-0.119-0.181-0.14-0.397-0.145-0.608c-0.019-0.806-1.269-0.808-1.25,0
			c0.021,0.92,0.449,1.765,1.375,2.042c0.759,0.229,1.587-0.126,2.007-0.775c0.499-0.771,0.137-2.195-0.625-2.678
			c-1.125-0.712-2.074,0.67-2.401,1.579C22.458,46.094,23.665,46.418,23.937,45.666L23.937,45.666z"/>
	</g>
</g>
</svg>
