<?xml version="1.0" encoding="utf-8"?>
<!-- Generator: Adobe Illustrator 16.0.4, SVG Export Plug-In . SVG Version: 6.00 Build 0)  -->
<!DOCTYPE svg PUBLIC "-//W3C//DTD SVG 1.1//EN" "http://www.w3.org/Graphics/SVG/1.1/DTD/svg11.dtd">
<svg version="1.1" id="Layer_1" xmlns="http://www.w3.org/2000/svg" xmlns:xlink="http://www.w3.org/1999/xlink" x="0px" y="0px"
	 width="36px" height="36px" viewBox="0 0 36 36" enable-background="new 0 0 36 36" xml:space="preserve">
<g>
	<g>
		<g>
			<defs>
				<rect id="SVGID_1_" width="42.264" height="35.939"/>
			</defs>
			<clipPath id="SVGID_2_">
				<use xlink:href="#SVGID_1_"  overflow="visible"/>
			</clipPath>
			<g clip-path="url(#SVGID_2_)">
				<g>
					<defs>
						<rect id="SVGID_3_" width="43" height="36"/>
					</defs>
					<clipPath id="SVGID_4_">
						<use xlink:href="#SVGID_3_"  overflow="visible"/>
					</clipPath>
					<path clip-path="url(#SVGID_4_)" fill="#8B0000" d="M33.334,0H2.655C1.19,0,0,1.162,0,2.594v30.809C0,34.836,1.19,36,2.655,36
						h30.679C34.801,36,36,34.836,36,33.402V2.594C36,1.162,34.801,0,33.334,0"/>
				</g>
				<g>
					<defs>
						<rect id="SVGID_5_" width="42.264" height="35.939"/>
					</defs>
					<clipPath id="SVGID_6_">
						<use xlink:href="#SVGID_5_"  overflow="visible"/>
					</clipPath>
					<g clip-path="url(#SVGID_6_)">
						<g>
							<g>
								<defs>
									<rect id="SVGID_7_" width="43" height="36"/>
								</defs>
								<clipPath id="SVGID_8_">
									<use xlink:href="#SVGID_7_"  overflow="visible"/>
								</clipPath>
								<path clip-path="url(#SVGID_8_)" fill="#FFFFFF" d="M5.334,13.497h5.346v17.179H5.334V13.497z M8.008,4.956
									c1.709,0,3.094,1.388,3.094,3.095c0,1.709-1.385,3.096-3.094,3.096c-1.715,0-3.098-1.387-3.098-3.096
									C4.91,6.344,6.293,4.956,8.008,4.956"/>
							</g>
							<g>
								<g>
									<defs>
										<rect id="SVGID_9_" width="43" height="36"/>
									</defs>
									<clipPath id="SVGID_10_">
										<use xlink:href="#SVGID_9_"  overflow="visible"/>
									</clipPath>
									<path clip-path="url(#SVGID_10_)" fill="#FFFFFF" d="M14.029,13.497h5.118v2.347h0.074
										c0.713-1.351,2.452-2.775,5.051-2.775c5.401,0,6.4,3.557,6.4,8.184v9.423H25.34v-8.354c0-1.992-0.039-4.555-2.773-4.555
										c-2.778,0-3.205,2.168-3.205,4.411v8.498H14.03L14.029,13.497"/>
								</g>
							</g>
						</g>
					</g>
				</g>
			</g>
		</g>
	</g>
</g>
</svg>
