<?xml version="1.0" encoding="utf-8"?>
<!-- Generator: Adobe Illustrator 16.0.4, SVG Export Plug-In . SVG Version: 6.00 Build 0)  -->
<!DOCTYPE svg PUBLIC "-//W3C//DTD SVG 1.1//EN" "http://www.w3.org/Graphics/SVG/1.1/DTD/svg11.dtd">
<svg version="1.1" id="Layer_1" xmlns="http://www.w3.org/2000/svg" xmlns:xlink="http://www.w3.org/1999/xlink" x="0px" y="0px"
	 width="36px" height="36px" viewBox="0 0 36 36" enable-background="new 0 0 36 36" xml:space="preserve">
<g>
	<g>
		<defs>
			<rect id="SVGID_1_" width="43" height="36"/>
		</defs>
		<clipPath id="SVGID_2_">
			<use xlink:href="#SVGID_1_"  overflow="visible"/>
		</clipPath>
	</g>
	<g>
		<defs>
			<rect id="SVGID_3_" width="43" height="36"/>
		</defs>
		<defs>
			<path id="SVGID_4_" d="M33.334,0H2.655C1.19,0,0,1.163,0,2.594v30.809C0,34.836,1.19,36,2.655,36h30.679
				C34.801,36,36,34.836,36,33.402V2.594C36,1.163,34.801,0,33.334,0"/>
		</defs>
		<clipPath id="SVGID_5_">
			<use xlink:href="#SVGID_3_"  overflow="visible"/>
		</clipPath>
		<clipPath id="SVGID_6_" clip-path="url(#SVGID_5_)">
			<use xlink:href="#SVGID_4_"  overflow="visible"/>
		</clipPath>
		<g clip-path="url(#SVGID_6_)">
			<g>
				<path fill="#8B0000" d="M18.001,0.721c-9.784,0-17.717,7.933-17.717,17.718c0,7.829,5.076,14.47,12.115,16.812
					c0.886,0.164,1.211-0.385,1.211-0.854c0-0.422-0.017-1.815-0.023-3.297c-4.93,1.07-5.97-2.092-5.97-2.092
					c-0.806-2.047-1.968-2.592-1.968-2.592c-1.606-1.1,0.123-1.077,0.123-1.077c1.777,0.125,2.715,1.826,2.715,1.826
					c1.58,2.708,4.145,1.926,5.156,1.474c0.157-1.146,0.616-1.928,1.125-2.369c-3.937-0.446-8.074-1.968-8.074-8.756
					c0-1.934,0.693-3.514,1.826-4.755c-0.184-0.445-0.791-2.249,0.172-4.688c0,0,1.488-0.477,4.873,1.815
					c1.414-0.393,2.93-0.59,4.436-0.597c1.506,0.007,3.021,0.203,4.438,0.597c3.381-2.292,4.867-1.815,4.867-1.815
					c0.965,2.439,0.357,4.242,0.174,4.688c1.137,1.241,1.824,2.821,1.824,4.755c0,6.805-4.146,8.303-8.091,8.742
					c0.636,0.55,1.201,1.628,1.201,3.281c0,2.37-0.021,4.278-0.021,4.86c0,0.473,0.318,1.023,1.217,0.852
					c7.035-2.346,12.104-8.984,12.104-16.811C35.718,8.653,27.785,0.721,18.001,0.721z"/>
				<path fill="#8B0000" d="M6.995,26.159c-0.039,0.088-0.178,0.112-0.305,0.054c-0.129-0.061-0.201-0.178-0.158-0.268
					c0.039-0.09,0.177-0.114,0.305-0.057C6.965,25.949,7.039,26.07,6.995,26.159L6.995,26.159z"/>
				<path fill="#8B0000" d="M7.712,26.96c-0.084,0.077-0.25,0.041-0.361-0.083c-0.115-0.124-0.138-0.288-0.052-0.368
					c0.087-0.077,0.248-0.041,0.363,0.082C7.778,26.716,7.8,26.88,7.712,26.96L7.712,26.96z"/>
				<path fill="#8B0000" d="M8.411,27.979c-0.108,0.076-0.286,0.006-0.396-0.15c-0.107-0.158-0.107-0.35,0.004-0.422
					c0.109-0.076,0.284-0.01,0.396,0.146C8.522,27.714,8.522,27.9,8.411,27.979L8.411,27.979z"/>
				<path fill="#8B0000" d="M9.368,28.966c-0.098,0.104-0.305,0.078-0.455-0.067c-0.155-0.144-0.198-0.347-0.102-0.453
					c0.1-0.105,0.308-0.075,0.459,0.068C9.424,28.655,9.472,28.859,9.368,28.966L9.368,28.966z"/>
				<path fill="#8B0000" d="M10.688,29.538c-0.043,0.139-0.242,0.201-0.442,0.144c-0.201-0.062-0.332-0.225-0.291-0.363
					s0.241-0.205,0.442-0.144C10.599,29.234,10.729,29.396,10.688,29.538L10.688,29.538z"/>
				<path fill="#8B0000" d="M12.138,29.645c0.006,0.146-0.164,0.269-0.375,0.271c-0.212,0.004-0.384-0.114-0.386-0.257
					c0-0.148,0.166-0.27,0.378-0.271C11.965,29.381,12.138,29.499,12.138,29.645L12.138,29.645z"/>
				<path fill="#8B0000" d="M13.487,29.414c0.025,0.145-0.121,0.289-0.33,0.328c-0.206,0.035-0.396-0.053-0.422-0.191
					c-0.025-0.146,0.123-0.293,0.328-0.331C13.272,29.186,13.461,29.271,13.487,29.414L13.487,29.414z"/>
			</g>
			<rect x="22.395" y="29.029" fill="#8B0000" width="13.605" height="6.971"/>
			<rect x="30" y="0.721" fill="#8B0000" width="6" height="35.279"/>
			<rect fill="#8B0000" width="36" height="7.625"/>
			<rect y="0.721" fill="#8B0000" width="4.5" height="35.279"/>
			<polyline fill="#8B0000" points="13.587,31.1 13.587,36 0.284,35.8 			"/>
			<rect x="1.875" y="29.462" fill="#8B0000" width="5.631" height="5.538"/>
			<rect x="3" y="32.375" fill="#8B0000" width="10.195" height="3.625"/>
		</g>
	</g>
</g>
</svg>
